/* XPM */
static char * favicon_xpm[] = {
"32 32 153 2",
"  	c None",
". 	c #000000",
"+ 	c #686868",
"@ 	c #A3A3A3",
"# 	c #BFBFBF",
"$ 	c #878787",
"% 	c #3D3D3D",
"& 	c #060606",
"* 	c #171717",
"= 	c #131313",
"- 	c #0A0A0A",
"; 	c #030303",
"> 	c #090909",
", 	c #373737",
"' 	c #414141",
") 	c #2F2F2F",
"! 	c #010101",
"~ 	c #020202",
"{ 	c #FFFFFF",
"] 	c #FBFBFB",
"^ 	c #979797",
"/ 	c #B1B1B1",
"( 	c #C6C6C6",
"_ 	c #ECECEC",
": 	c #FEFEFE",
"< 	c #A8A8A8",
"[ 	c #1E1E1E",
"} 	c #696969",
"| 	c #C2C2C2",
"1 	c #E4E4E4",
"2 	c #EEEEEE",
"3 	c #F8F8F8",
"4 	c #8F8F8F",
"5 	c #ADADAD",
"6 	c #EDEDED",
"7 	c #CCCCCC",
"8 	c #8D8D8D",
"9 	c #FDFDFD",
"0 	c #E3E3E3",
"a 	c #EBEBEB",
"b 	c #F4F4F4",
"c 	c #F1F1F1",
"d 	c #E5E5E5",
"e 	c #F7F7F7",
"f 	c #E7E7E7",
"g 	c #D6D6D6",
"h 	c #6E6E6E",
"i 	c #F2F2F2",
"j 	c #656565",
"k 	c #070707",
"l 	c #BABABA",
"m 	c #636363",
"n 	c #0E0E0E",
"o 	c #606060",
"p 	c #262626",
"q 	c #3A3A3A",
"r 	c #DADADA",
"s 	c #8A8A8A",
"t 	c #2A2A2A",
"u 	c #A5A5A5",
"v 	c #FCFCFC",
"w 	c #434343",
"x 	c #4A4A4A",
"y 	c #ACACAC",
"z 	c #666666",
"A 	c #161616",
"B 	c #F6F6F6",
"C 	c #2E2E2E",
"D 	c #797979",
"E 	c #151515",
"F 	c #616161",
"G 	c #121212",
"H 	c #7C7C7C",
"I 	c #AEAEAE",
"J 	c #242424",
"K 	c #DEDEDE",
"L 	c #A1A1A1",
"M 	c #FAFAFA",
"N 	c #C5C5C5",
"O 	c #F3F3F3",
"P 	c #101010",
"Q 	c #BBBBBB",
"R 	c #0F0F0F",
"S 	c #F9F9F9",
"T 	c #494949",
"U 	c #E8E8E8",
"V 	c #181818",
"W 	c #444444",
"X 	c #A4A4A4",
"Y 	c #272727",
"Z 	c #C0C0C0",
"` 	c #C3C3C3",
" .	c #404040",
"..	c #080808",
"+.	c #868686",
"@.	c #050505",
"#.	c #0B0B0B",
"$.	c #2C2C2C",
"%.	c #B3B3B3",
"&.	c #4E4E4E",
"*.	c #D3D3D3",
"=.	c #0D0D0D",
"-.	c #8E8E8E",
";.	c #747474",
">.	c #232323",
",.	c #515151",
"'.	c #464646",
").	c #5A5A5A",
"!.	c #8B8B8B",
"~.	c #757575",
"{.	c #CECECE",
"].	c #353535",
"^.	c #A9A9A9",
"/.	c #5B5B5B",
"(.	c #E9E9E9",
"_.	c #DFDFDF",
":.	c #E0E0E0",
"<.	c #C7C7C7",
"[.	c #D1D1D1",
"}.	c #BCBCBC",
"|.	c #B9B9B9",
"1.	c #252525",
"2.	c #B0B0B0",
"3.	c #F0F0F0",
"4.	c #C1C1C1",
"5.	c #E6E6E6",
"6.	c #969696",
"7.	c #6F6F6F",
"8.	c #9D9D9D",
"9.	c #3C3C3C",
"0.	c #E1E1E1",
"a.	c #B2B2B2",
"b.	c #B6B6B6",
"c.	c #777777",
"d.	c #7E7E7E",
"e.	c #767676",
"f.	c #949494",
"g.	c #9F9F9F",
"h.	c #D2D2D2",
"i.	c #D5D5D5",
"j.	c #DDDDDD",
"k.	c #EAEAEA",
"l.	c #858585",
"m.	c #CBCBCB",
"n.	c #7D7D7D",
"o.	c #474747",
"p.	c #202020",
"q.	c #5E5E5E",
"r.	c #B5B5B5",
"s.	c #919191",
"t.	c #929292",
"u.	c #4F4F4F",
"v.	c #141414",
"                                                                ",
"                                                                ",
"                                                                ",
"                                                                ",
"                                                                ",
"                                                                ",
"                                                                ",
". . . . .                                                       ",
"+ @ # $ % . . . & * = - .   . . . ; > , ' ) . . . ! ; ; ; ~ . . ",
"{ { { { ] ^ / ( _ { { : < [ } | 1 2 3 { { { ( 4 5 1 2 2 2 6 7 8 ",
"{ { 9 1 0 0 _ { { { a # ( b { { { c 0 0 d e { { { { a 0 0 0 0 f ",
"{ { g . . . h { i j k . . * l { { m . . ! n o i { : p . . . . q ",
"{ { r s t . u v w . x y z . A B { C . D D E . F { 6 ~ G H H H I ",
"{ { { : J . K L . , ] { M E . N O & P M { Q . R S Q . T M M ] { ",
"{ { { U ~ V 9 W . X { { { Y . Z ` .  .{ { U ! ..b +.. @.#.#.$.{ ",
"{ { { %.. &.{ E . *.{ { e =.~ 1 -.. ;.{ { N . >.: ,.. '.).).!.{ ",
"{ { { ~.. $ { P . {.{ { < . ].{ ).. ^.{ { /.. H 9 [ . (.{ { { { ",
"_.:.<.E ! [.{ ' . o 6 }.* ; |.{ 1.. 2.` j ! 1.3.d ! = Z 4.4.5.{ ",
"6.! . . 7.{ { <.n . ; . > 8.{ 2 ! . . . . 9.0.{ a.. . . . . b.{ ",
"7 c.d.l { { { { 1 -.e.f.1 { { a g.g.g.< h.{ { { *.g.g.g.g.g.c { ",
"{ { { { { { { { { { { { { { { { { { { { { { { { { { { { { { { { ",
"i.j.M { { { { { { { { { { { { { { { { { { { { { { { { { { { k.l.",
". . R F H l.{.9 { { { { { { { { { { { { { { { ] U m.8 n.+ o.... ",
"      . . . . E p.q.~.~.r.(.i.s.).t.[.@ d.u. .v.! . . . .       ",
"                  . . . . ! . . . . . . . .                     ",
"                                                                ",
"                                                                ",
"                                                                ",
"                                                                ",
"                                                                ",
"                                                                ",
"                                                                "};
